Coordinates
version=1
nRows=21
nColumns=28
inDegrees=yes

Units are S.I. units (second, meters, Newtons, ...)
Angles are in degrees.

endheader
time	pelvis_tilt	pelvis_list	pelvis_rotation	pelvis_tx	pelvis_ty	pelvis_tz	hip_flexion_r	hip_adduction_r	hip_rotation_r	knee_angle_r	ankle_angle_r	subtalar_angle_r	mtp_angle_r	hip_flexion_l	hip_adduction_l	hip_rotation_l	knee_angle_l	socket_flexion	socket_adduction	socket_rotation	socket_tx	socket_ty	socket_tz	foot_flex	lumbar_extension	lumbar_bending	lumbar_rotation
      0.64583333	     -2.02385633	     -3.36743641	      4.16695562	     -0.05096166	      0.97533676	      0.27713484	     28.36903751	      7.39719932	      4.06754110	     -7.35295801	     16.25697431	    -25.63198735	     -5.40886316	    -19.60457165	     -2.95270694	     -0.77858396	     -6.85667677	     -2.69212346	     -0.94451178	     18.00957368	      0.00000000	     -0.00229675	      0.00000000	     10.04669238	     -9.18718906	      1.63904559	      0.62905487
      0.65000000	     -1.99880443	     -3.42753227	      4.31560725	     -0.04465368	      0.97433134	      0.27678361	     28.47478693	      7.53817085	      4.28041887	     -8.00633845	     16.10952701	    -25.65432109	     -5.39066595	    -19.89694913	     -3.06769803	     -0.65967483	     -7.03306341	     -2.66214686	     -0.96908649	     18.02655369	      0.00000000	     -0.00211141	      0.00000000	     10.07506703	     -9.14342593	      1.82475179	      0.59985596
      0.65416667	     -1.94332962	     -3.50479343	      4.39890421	     -0.03837228	      0.97331563	      0.27650860	     28.61896799	      7.72717973	      4.43906435	     -8.81550283	     15.89086146	    -25.73155060	     -5.36925826	    -20.22032175	     -3.17518225	     -0.57710880	     -7.23382898	     -2.64232335	     -0.98789868	     17.99404579	      0.00000000	     -0.00198973	      0.00000000	     10.09452417	     -9.13455295	      2.04384594	      0.54683849
      0.65833333	     -1.85283439	     -3.59346203	      4.42294679	     -0.03205997	      0.97234076	      0.27633698	     28.80011672	      7.95736478	      4.44261768	     -9.77623021	     15.55654264	    -25.91892735	     -5.29979906	    -20.57824220	     -3.26957156	     -0.62589161	     -7.46177186	     -2.62687111	     -0.98302968	     17.85985502	      0.00000000	     -0.00188016	      0.00000000	     10.08599235	     -9.17173466	      2.26870586	      0.46023896
      0.66250000	     -1.58614129	     -3.80589563	      4.52726302	     -0.02550057	      0.97167914	      0.27590851	     28.59733987	      8.26923153	      4.51721155	    -10.29714791	     13.90176686	    -27.11124680	     -1.91308063	    -21.06175383	     -3.54699117	     -1.03490789	     -7.89136082	     -2.74898847	     -1.08515042	     18.21461981	      0.00000000	     -0.00170021	      0.00000000	     10.06188076	     -9.36348652	      2.68631309	      0.31466003
      0.66666667	     -1.54517178	     -3.86626882	      4.58136377	     -0.01923816	      0.97074963	      0.27576498	     28.76083476	      8.45639492	      4.67238422	    -11.14743015	     13.62079214	    -27.10168208	     -1.87741936	    -21.33559523	     -3.63257452	     -0.94192523	     -8.12716596	     -2.68911276	     -1.08337459	     18.13100218	      0.00000000	     -0.00157738	      0.00000000	     10.01637206	     -9.34152116	      2.86441071	      0.30439882
      0.67083333	     -1.49302765	     -3.94745237	      4.61925202	     -0.01286274	      0.96986876	      0.27558990	     28.92046460	      8.66144560	      4.75268135	    -12.03521627	     13.26976705	    -27.13144331	     -1.83338843	    -21.62352864	     -3.72720755	     -0.88671115	     -8.37267606	     -2.63554913	     -1.08586461	     18.03633348	      0.00000000	     -0.00144776	      0.00000000	      9.94946348	     -9.31723975	      3.07961978	      0.28871223
      0.67500000	     -1.42449259	     -4.05510356	      4.61500176	     -0.00638300	      0.96905467	      0.27542444	     29.10403664	      8.89492890	      4.64927633	    -13.00461420	     12.75231001	    -27.24275225	     -1.67776075	    -21.92110132	     -3.82569624	     -0.91801394	     -8.65508420	     -2.59287700	     -1.09319806	     17.90938961	      0.00000000	     -0.00129378	      0.00000000	      9.85525034	     -9.30108674	      3.33420932	      0.28076066
      0.67916667	     -1.29732933	     -4.18007010	      4.71258443	      0.00009591	      0.96836165	      0.27506538	     29.14999317	      9.06718360	      4.46406260	    -13.74898146	     10.80996979	    -28.13346439	      3.57158706	    -22.05242687	     -4.01145829	     -1.27592580	     -9.55775683	     -2.90213552	     -1.27101683	     18.26579775	      0.00000000	     -0.00103694	      0.00000000	      9.74826269	     -9.34482230	      3.62038217	      0.23306862
      0.68333333	     -1.23446952	     -4.30837584	      4.71703363	      0.00648042	      0.96766249	      0.27501604	     29.27854048	      9.32764557	      4.55299068	    -14.62021765	     10.47586323	    -28.09001372	      3.55898992	    -22.31148992	     -4.15064733	     -1.20559925	     -9.83896321	     -2.81272226	     -1.23466427	     18.11758222	      0.00000000	     -0.00095602	      0.00000000	      9.59548493	     -9.33725398	      3.88186846	      0.21805850
      0.68750000	     -1.15176083	     -4.45461016	      4.68814448	      0.01295656	      0.96704410	      0.27493463	     29.40741413	      9.59656666	      4.47056367	    -15.53242897	     10.02733967	    -28.08906141	      3.57107165	    -22.57734328	     -4.28204091	     -1.19340677	    -10.17028865	     -2.72597634	     -1.20917440	     17.92918362	      0.00000000	     -0.00086184	      0.00000000	      9.42211363	     -9.32868739	      4.17503339	      0.22372011
      0.69166667	     -1.08707281	     -4.58820759	      4.71630784	      0.01932184	      0.96652806	      0.27490113	     29.48609274	      9.84473511	      4.56440419	    -16.33559388	      9.69066494	    -28.05780181	      3.58769780	    -22.78827516	     -4.44233658	     -1.08657678	    -10.49816400	     -2.59453883	     -1.16392425	     17.86504700	      0.00000000	     -0.00078975	      0.00000000	      9.24552951	     -9.32360049	      4.43189729	      0.23175798
      0.69583333	     -0.98508052	     -4.77172565	      4.64685572	      0.02578810	      0.96604246	      0.27492923	     29.60619858	     10.15654965	      4.44905424	    -17.27680723	      9.20295940	    -28.06778147	      3.62973991	    -23.02736015	     -4.60148117	     -1.10426331	    -10.92406402	     -2.53809945	     -1.11580196	     17.60442304	      0.00000000	     -0.00075356	      0.00000000	      8.99476670	     -9.34494384	      4.76141020	      0.25048754
      0.70000000	     -0.84679712	     -5.00118527	      4.77680520	      0.03230700	      0.96577313	      0.27451325	     29.61658051	     10.35793330	      4.00283420	    -18.00366778	      7.74500772	    -28.56128589	      7.25294503	    -22.84841941	     -4.92829802	     -1.58854704	    -12.58876421	     -3.18819786	     -1.41692484	     18.06945216	      0.00000000	     -0.00032630	      0.00000000	      8.75466369	     -9.37386155	      5.17391901	      0.22301428
      0.70416667	     -0.77657559	     -5.15178517	      4.71325037	      0.03870533	      0.96546514	      0.27469801	     29.67056199	     10.64953947	      4.10621568	    -18.79940417	      7.47813595	    -28.50139460	      7.24315017	    -23.02497946	     -5.07573731	     -1.48286278	    -12.96402555	     -3.01588562	     -1.32025712	     17.90497801	      0.00000000	     -0.00027136	      0.00000000	      8.48918355	     -9.38626967	      5.43593376	      0.22953519
      0.70833333	     -0.68637519	     -5.32578717	      4.63170766	      0.04515880	      0.96526053	      0.27484107	     29.71154805	     10.95630536	      4.12655228	    -19.62694597	      7.17459281	    -28.44830833	      7.23363361	    -23.19649546	     -5.22829232	     -1.41327131	    -13.40363642	     -2.86747807	     -1.22524284	     17.65082526	      0.00000000	     -0.00018833	      0.00000000	      8.18221379	     -9.39246871	      5.73436586	      0.26031082
      0.71250000	     -0.56069701	     -5.55715797	      4.55123369	      0.05170264	      0.96519999	      0.27483157	     29.70891442	     11.27085328	      3.90065638	    -20.41828779	      6.77464259	    -28.38793652	      7.26326498	    -23.33667243	     -5.41994565	     -1.36675363	    -14.03161281	     -2.81886153	     -1.13129689	     17.27823965	      0.00000000	     -0.00006603	      0.00000000	      7.84879472	     -9.41935758	      6.10857633	      0.37751046
      0.71666667	     -0.37405953	     -5.82099027	      4.73796238	      0.05806876	      0.96542951	      0.27456623	     29.59131575	     11.49166156	      3.48001827	    -21.05354776	      6.34061525	    -28.23811031	      7.74290448	    -23.20562290	     -5.79521986	     -1.24646000	    -15.42079510	     -3.17238456	     -1.20626398	     17.20657182	      0.00000000	      0.00031293	      0.00000000	      7.49297415	     -9.52486412	      6.51699060	      0.41085378
      0.72083333	     -0.30785796	     -5.96283679	      4.63474904	      0.06451733	      0.96543866	      0.27489036	     29.57099616	     11.77998235	      3.61457109	    -21.77182991	      6.17104598	    -28.17775489	      7.77448676	    -23.28590441	     -5.92720409	     -1.17171371	    -15.90273783	     -2.94718268	     -1.06112484	     17.02819460	      0.00000000	      0.00037951	      0.00000000	      7.17041799	     -9.51274069	      6.75104512	      0.39986040
      0.72500000	     -0.20940332	     -6.17688515	      4.42737273	      0.07103156	      0.96556206	      0.27522622	     29.54219311	     12.14174731	      3.57785181	    -22.52561542	      5.95089253	    -28.09964094	      7.82513138	    -23.35381441	     -6.06489488	     -1.11393189	    -16.58533003	     -2.85945723	     -0.89936523	     16.61322941	      0.00000000	      0.00054200	      0.00000000	      6.73719038	     -9.54051287	      7.07840758	      0.44969808
      0.72916667	     -0.11751873	     -6.36904405	      4.32666563	      0.07747096	      0.96576793	      0.27550728	     29.45986838	     12.45146875	      3.58722850	    -23.17040841	      5.77743039	    -28.00315384	      7.87619764	    -23.36203555	     -6.23834722	     -0.98083442	    -17.26745493	     -2.70851597	     -0.73110857	     16.31209119	      0.00000000	      0.00060736	      0.00000000	      6.35704999	     -9.56852224	      7.35153354	      0.52457069
